<?xml version="1.0" standalone="no"?>
<!DOCTYPE svg PUBLIC "-//W3C//DTD SVG 20010904//EN"
 "http://www.w3.org/TR/2001/REC-SVG-20010904/DTD/svg10.dtd">
<svg version="1.0" xmlns="http://www.w3.org/2000/svg"
 width="752.000000pt" height="752.000000pt" viewBox="0 0 752.000000 752.000000"
 preserveAspectRatio="xMidYMid meet">

<g transform="translate(0.000000,752.000000) scale(0.100000,-0.100000)"
fill="#000000" stroke="none">
<path d="M3600 6124 c-589 -53 -1080 -273 -1484 -664 -388 -376 -618 -828
-702 -1380 -24 -158 -25 -481 -1 -640 84 -552 321 -1014 714 -1390 360 -345
801 -559 1313 -637 158 -23 482 -23 640 0 549 84 1008 317 1381 705 353 366
567 805 646 1322 23 158 23 482 0 640 -84 552 -319 1009 -713 1390 -354 341
-816 566 -1305 635 -112 16 -401 27 -489 19z m638 -1059 c47 -20 79 -50 104
-99 29 -57 22 -150 -15 -202 -14 -22 -244 -257 -510 -522 l-484 -484 498 -496
c348 -347 503 -508 514 -534 32 -79 12 -180 -47 -235 -57 -53 -151 -67 -223
-34 -56 27 -1198 1172 -1220 1223 -8 21 -15 56 -15 78 0 22 7 57 15 78 22 51
1164 1196 1220 1223 49 23 113 24 163 4z"/>
</g>
</svg>
